<svg width="41" height="40" viewBox="0 0 41 40" fill="none" xmlns="http://www.w3.org/2000/svg">
<path d="M20.7119 40C9.68491 40 0.711914 31.028 0.711914 19.999C0.711914 8.97201 9.68491 0 20.7119 0C31.7399 0 40.7119 8.97201 40.7119 19.999C40.7119 31.028 31.7409 40 20.7119 40ZM20.7119 0.764008C10.1069 0.764008 1.47693 9.39301 1.47693 19.999C1.47693 30.606 10.1069 39.236 20.7119 39.236C31.3179 39.236 39.948 30.606 39.948 19.999C39.949 9.39301 31.3189 0.764008 20.7119 0.764008Z" fill="white"/>
<path d="M30.3589 14.5809C29.5919 13.6689 28.1748 13.2969 25.4678 13.2969H15.6438C12.8768 13.2969 11.4348 13.6929 10.6708 14.6639C9.92578 15.6109 9.92578 17.0069 9.92578 18.9379V22.6189C9.92578 26.3609 10.8088 28.2609 15.6438 28.2609H25.4689C27.8149 28.2609 29.1148 27.9329 29.9568 27.1269C30.8178 26.3019 31.1858 24.9529 31.1858 22.6189V18.9379C31.1868 16.9009 31.1299 15.4979 30.3589 14.5809ZM23.5758 21.2869L19.1149 23.6179C19.0149 23.6709 18.9059 23.6959 18.7979 23.6959C18.6749 23.6959 18.5519 23.6629 18.4429 23.5979C18.2369 23.4729 18.1118 23.2499 18.1118 23.0109V18.3619C18.1118 18.1229 18.2368 17.9009 18.4418 17.7759C18.6468 17.6519 18.9018 17.6429 19.1138 17.7539L23.5748 20.0699C23.8028 20.1879 23.9438 20.4229 23.9448 20.6779C23.9438 20.9329 23.8028 21.1689 23.5758 21.2869Z" fill="white"/>
</svg>
