<svg width="40" height="40" viewBox="0 0 40 40" fill="none" xmlns="http://www.w3.org/2000/svg">
<path d="M25.2947 8.23352L22.3888 8.22852C19.1248 8.22852 17.0148 10.3935 17.0148 13.7435V16.2865H14.0928C13.8398 16.2865 13.6357 16.4915 13.6357 16.7435V20.4275C13.6357 20.6795 13.8408 20.8845 14.0928 20.8845H17.0148V30.1805C17.0148 30.4325 17.2187 30.6375 17.4717 30.6375H21.2838C21.5358 30.6375 21.7408 30.4325 21.7408 30.1805V20.8845H25.1568C25.4088 20.8845 25.6138 20.6795 25.6138 20.4275L25.6147 16.7435C25.6147 16.6225 25.5668 16.5055 25.4818 16.4205C25.3958 16.3345 25.2788 16.2865 25.1578 16.2865H21.7408V14.1305C21.7408 13.0945 21.9868 12.5685 23.3368 12.5685H25.2947C25.5467 12.5685 25.7518 12.3635 25.7518 12.1115V8.69052C25.7518 8.43852 25.5467 8.23352 25.2947 8.23352Z" fill="white"/>
<path d="M20 40C8.972 40 0 31.028 0 19.999C0 8.97201 8.972 0 20 0C31.028 0 40 8.97201 40 19.999C40 31.028 31.028 40 20 40ZM20 0.764008C9.393 0.764008 0.764038 9.39301 0.764038 19.999C0.764038 30.606 9.393 39.236 20 39.236C30.606 39.236 39.236 30.606 39.236 19.999C39.236 9.39301 30.606 0.764008 20 0.764008Z" fill="white"/>
</svg>
