<svg width="41" height="40" viewBox="0 0 41 40" fill="none" xmlns="http://www.w3.org/2000/svg">
<path d="M20.8037 40C9.77571 40 0.803711 31.028 0.803711 19.999C0.803711 8.97201 9.77571 0 20.8037 0C31.8317 0 40.8037 8.97201 40.8037 19.999C40.8037 31.028 31.8307 40 20.8037 40ZM20.8037 0.764008C10.1977 0.764008 1.56769 9.39301 1.56769 19.999C1.56769 30.606 10.1977 39.236 20.8037 39.236C31.4107 39.236 40.0387 30.606 40.0387 19.999C40.0387 9.39301 31.4107 0.764008 20.8037 0.764008Z" fill="white"/>
<path d="M31.4294 29.8665L31.4344 29.8654V22.0674C31.4344 18.2534 30.6134 15.3145 26.1544 15.3145C24.0104 15.3145 22.5714 16.4905 21.9834 17.6055H21.9214V15.6705H17.6934V29.8654H22.0964V22.8365C22.0964 20.9855 22.4474 19.1965 24.7394 19.1965C26.9974 19.1965 27.0314 21.3084 27.0314 22.9554V29.8665H31.4294V29.8665Z" fill="white"/>
<path d="M14.9315 15.6719H10.5234V29.8669H14.9315V15.6719Z" fill="white"/>
<path d="M12.7258 8.60547C11.3168 8.60547 10.1729 9.74948 10.1729 11.1585C10.1729 12.5675 11.3168 13.7355 12.7258 13.7355C14.1358 13.7355 15.2788 12.5675 15.2788 11.1585C15.2778 9.74948 14.1348 8.60547 12.7258 8.60547Z" fill="white"/>
</svg>
