<svg width="41" height="40" viewBox="0 0 41 40" fill="none" xmlns="http://www.w3.org/2000/svg">
<path d="M20.6562 40C9.62825 40 0.655273 31.028 0.655273 19.999C0.655273 8.97201 9.62825 0 20.6562 0C31.6833 0 40.6562 8.97201 40.6562 19.999C40.6562 31.028 31.6833 40 20.6562 40ZM20.6562 0.764008C10.0492 0.764008 1.42023 9.39301 1.42023 19.999C1.42023 30.606 10.0492 39.236 20.6562 39.236C31.2612 39.236 39.8903 30.606 39.8903 19.999C39.8903 9.39301 31.2612 0.764008 20.6562 0.764008Z" fill="white"/>
<path d="M30.3018 25.2545V14.7445C30.3018 12.3235 28.3308 10.3535 25.9088 10.3535H15.3978C12.9768 10.3535 11.0068 12.3235 11.0068 14.7445V25.2545C11.0068 27.6765 12.9768 29.6475 15.3978 29.6475H25.9099C28.3309 29.6475 30.3018 27.6755 30.3018 25.2545ZM20.6548 26.0435C17.3218 26.0435 14.6108 23.3325 14.6108 20.0005C14.6108 16.6675 17.3218 13.9565 20.6548 13.9565C23.9868 13.9565 26.6989 16.6675 26.6989 20.0005C26.6989 23.3325 23.9868 26.0435 20.6548 26.0435ZM28.0308 14.7975C27.7478 15.0805 27.3538 15.2435 26.9528 15.2435C26.5528 15.2435 26.1578 15.0805 25.8748 14.7975C25.5908 14.5125 25.4268 14.1185 25.4268 13.7175C25.4268 13.3155 25.5908 12.9215 25.8748 12.6385C26.1578 12.3545 26.5528 12.1925 26.9528 12.1925C27.3538 12.1925 27.7498 12.3545 28.0308 12.6385C28.3158 12.9215 28.4778 13.3155 28.4778 13.7175C28.4778 14.1185 28.3158 14.5115 28.0308 14.7975Z" fill="white"/>
<path d="M20.6564 16.0371C18.4694 16.0371 16.6934 17.8141 16.6934 20.0001C16.6934 22.1841 18.4694 23.9621 20.6564 23.9621C22.8414 23.9621 24.6194 22.1841 24.6194 20.0001C24.6194 17.8141 22.8404 16.0371 20.6564 16.0371Z" fill="white"/>
</svg>
