<svg width="41" height="40" viewBox="0 0 41 40" fill="none" xmlns="http://www.w3.org/2000/svg">
<path d="M20.3115 40C9.28452 40 0.311523 31.028 0.311523 19.999C0.311523 8.97201 9.28452 0 20.3115 0C31.3395 0 40.3115 8.97201 40.3115 19.999C40.3115 31.028 31.3405 40 20.3115 40ZM20.3115 0.764008C9.70652 0.764008 1.07654 9.39301 1.07654 19.999C1.07654 30.606 9.70652 39.236 20.3115 39.236C30.9175 39.236 39.5476 30.606 39.5476 19.999C39.5486 9.39301 30.9185 0.764008 20.3115 0.764008Z" fill="white"/>
<path d="M28.5625 14.8894C27.9557 15.1511 27.2953 15.3396 26.6151 15.4129C27.3213 14.9934 27.8502 14.3305 28.1024 13.5487C27.4397 13.943 26.7137 14.2194 25.9566 14.3658C25.6402 14.0275 25.2575 13.758 24.8324 13.5741C24.4073 13.3902 23.9488 13.2959 23.4856 13.2969C21.6115 13.2969 20.1043 14.816 20.1043 16.6802C20.1043 16.942 20.136 17.2037 20.1876 17.4556C17.3814 17.3088 14.8786 15.9682 13.2148 13.9156C12.9116 14.4335 12.7527 15.0231 12.7547 15.6231C12.7547 16.7972 13.3516 17.8324 14.2619 18.4412C13.7254 18.4201 13.2016 18.2727 12.7328 18.0109V18.0525C12.7328 19.6966 13.895 21.059 15.4438 21.3724C15.153 21.4479 14.8539 21.4865 14.5534 21.4874C14.3333 21.4874 14.125 21.4656 13.9148 21.4358C14.3432 22.7765 15.5906 23.7502 17.076 23.7819C15.9139 24.6922 14.4582 25.2277 12.8776 25.2277C12.594 25.2277 12.3322 25.2177 12.0605 25.186C13.5598 26.1478 15.3387 26.7031 17.2545 26.7031C23.4737 26.7031 26.8768 21.5508 26.8768 17.0788C26.8768 16.932 26.8768 16.7853 26.8669 16.6385C27.5253 16.1566 28.1024 15.5597 28.5625 14.8894Z" fill="white"/>
</svg>
